PathFileType	4	(X/Y/Z)	11_2_105_p1_0-357.trc
DataRate	CameraRate	NumFrames	NumMarkers	Units	OrigDataRate	OrigDataStartFrame	OrigNumFrames
59.0	59.0	6	27	m	59.0	134	358
Frame#	Time	RHip			RKnee			RAnkle			RBigToe			RSmallToe			RHeel			LHip			LKnee			LAnkle			LBigToe			LSmallToe			LHeel			Neck			Head			Nose			RShoulder			RElbow			RWrist			RThumb			RIndex			RPinky			LShoulder			LElbow			LWrist			LThumb			LIndex			LPinky			
		X1	Y1	Z1	X2	Y2	Z2	X3	Y3	Z3	X4	Y4	Z4	X5	Y5	Z5	X6	Y6	Z6	X7	Y7	Z7	X8	Y8	Z8	X9	Y9	Z9	X10	Y10	Z10	X11	Y11	Z11	X12	Y12	Z12	X13	Y13	Z13	X14	Y14	Z14	X15	Y15	Z15	X16	Y16	Z16	X17	Y17	Z17	X18	Y18	Z18	X19	Y19	Z19	X20	Y20	Z20	X21	Y21	Z21	X22	Y22	Z22	X23	Y23	Z23	X24	Y24	Z24	X25	Y25	Z25	X26	Y26	Z26	X27	Y27	Z27	
134	2.2711864406779663	0.3323376432720065	0.6021295732150259	0.6061280832383602	0.33822216775330294	0.604254818750382	1.0147907922748918	0.3518782677412504	0.75045129573546	1.4654852280384643	0.34776584646558295	0.5274726324864927	1.4500650402284188	0.4048684766014877	0.5688666948429103	1.452296009148286	0.3331633341707271	0.8183029955264339	1.5197746266331051	0.1494260871713714	0.6238979537910527	0.6109194837166	0.1518969474739326	0.6470884554212599	1.0266354629104806	0.17345484677650974	0.7174391374569593	1.4544453845961665	0.20132520314566546	0.5464197745842178	1.4621410613919557	0.13952069357366967	0.5842073337096079	1.4601815984017472	0.19217132951167468	0.7738030778618086	1.50555203515578	0.23493717307450884	0.6019014596859942	0.10044022688879503	0.24157549659131936	0.48280756703654404	-0.12079833415378587	0.22724790695282746	0.42200957594804467	-0.006733964700335153	0.382020822021208	0.5505728928585462	0.1521212563142851	0.40026417641897394	0.31783938793175415	0.25260888706939355	0.22470136628355122	0.2970507901656285	0.13644390844303894	0.13686419824699808	0.3245891678735875	0.09686957708203796	0.14797841531898961	0.2796761223953674	0.08616542880874915	0.16502353277161166	0.2235415820138425	0.1102644893066737	0.10615013847744334	0.5995409459732274	0.17350490004869046	0.04108052233274494	0.637561552608017	0.3875238203229853	0.15207637216223133	0.4052279502815294	0.48589775916907935	0.23440351927337963	0.3410756457229744	0.5185065991246544	0.22376433678844465	0.3215880689138748	0.5456558466591352	0.17067885812201988	0.38652794136577356	0.5726364909697254
135	2.288135593220339	0.3329782866895858	0.6009663187602958	0.6022768744483774	0.33855136876793057	0.6007218553236439	1.0092816416685109	0.35088922288174157	0.7484316637126166	1.4599312564070177	0.34948109042792364	0.5404617398732384	1.4614589046721158	0.4000561909306874	0.562894826842039	1.4498880701966506	0.3331236109947207	0.8181588293313052	1.5195481280610574	0.1493881395983397	0.6228446280234349	0.6109868655473522	0.1522760384850034	0.6458366085743347	1.0302924085334118	0.17244757261548363	0.7156227598432755	1.4488511670758553	0.20136262555931386	0.5463469325718365	1.4622230682455677	0.13938190637572495	0.5837276993314005	1.4600653878419148	0.19128031126162473	0.7717508161371966	1.5007657418043658	0.23499335079367903	0.6016439345325255	0.1003112638047446	0.24152180954984956	0.482478612832828	-0.12374231672195252	0.2273002930022485	0.4220276375517487	-0.009817824151330146	0.37951401033471044	0.5386167007704553	0.1510521098965119	0.40004070586449525	0.3177090448149637	0.2520188429919032	0.22385048727576456	0.297576231402291	0.13305233127292082	0.130996758326032	0.3118749883771431	0.09357988741612508	0.13736986533235634	0.26797104432207824	0.08266579004648743	0.1600182791920149	0.22321814311197893	0.10545752753272886	0.10614131429636936	0.5995278656452421	0.17358242251663422	0.037374442054958844	0.6345816604800323	0.3906693216779898	0.1520802701202116	0.40502335913686416	0.4859226589517568	0.23347777467563716	0.3413284213342914	0.5114616036883347	0.22381026594899064	0.3219378090960916	0.5456077627512056	0.16922732906584015	0.37503176476285427	0.5701612397390566
136	2.305084745762712	0.33262358970075767	0.6014884730687492	0.606296876173627	0.33933237156156004	0.6022746177103436	1.014031909118709	0.3518641062024151	0.75032716100073	1.4655445526515547	0.3477402661341545	0.527211640359042	1.4498361348777171	0.3994569594469149	0.5643722682615637	1.4462132977060496	0.3331445404120553	0.818293805788409	1.5197098869471601	0.1496980044896375	0.621926624825386	0.6144161891732648	0.15217772922156392	0.6456345823913818	1.0302206536893175	0.172584739266407	0.7155790047248883	1.4488119088274833	0.1954164418107514	0.5606877437010008	1.470185263372248	0.14004414047951386	0.582268831437575	1.4633740295022213	0.19616336076669474	0.7775074638111227	1.5037593136001197	0.2349549212565689	0.6017247039006697	0.10026496862517649	0.24145859372206138	0.48258605701311924	-0.12371594850347617	0.23103416836835913	0.42356737570850606	-0.009924249224251471	0.3794512337003352	0.5384095448595211	0.1509685619479553	0.39929187745599015	0.3172670374402435	0.24167882336254973	0.22024025794665553	0.29487963090808217	0.12960459927830537	0.125275456805871	0.2989820279521476	0.09293872355558795	0.12643048284042535	0.2642857913039087	0.07906889439540986	0.15491749225234147	0.21157871635005812	0.1019322036847063	0.10612787981831774	0.5997053140322277	0.1736090899584048	0.03694323249324459	0.6348663942351872	0.39497991492828616	0.15200624202700674	0.4052014861200008	0.4858860621919345	0.23331148052679732	0.34161369575645095	0.5115913418838133	0.22322678152185924	0.322606713345681	0.5428832798098666	0.16893593272390267	0.37523214475827293	0.5701878303157661
137	2.3220338983050848	0.332159003966966	0.6015228112220191	0.6103872968019942	0.33788365762834294	0.6011824985468489	1.0137765885518941	0.3518594422847615	0.750499448316202	1.4655123338128888	0.3475463318671525	0.5268578837172517	1.4496650891152645	0.39911427183724446	0.5638013105112505	1.4459073143854937	0.33311931898939456	0.8186006167963364	1.5194278667037415	0.14872360943982074	0.6232492347108445	0.6150322068281949	0.15072739600152502	0.6442253474191441	1.0292992486622627	0.17254610167763149	0.715780845864509	1.4489750938655364	0.2013166454303481	0.5463208744812807	1.462017715524905	0.13993708598169474	0.5821716765114338	1.4635745568287875	0.19620476652880292	0.777682499532866	1.5039831831945152	0.23471644826820878	0.601786664131255	0.09690516538311017	0.24134483745099675	0.48254070025521323	-0.12378394043427776	0.22717342073669652	0.42207191915906994	-0.009705134401522925	0.3794331283056866	0.5382190511196452	0.15092719530438622	0.399231469594931	0.31722532823889554	0.24135413176282122	0.22885078253470056	0.28551659901983095	0.12807937965401414	0.12921773459590497	0.2764026500568598	0.09111039593920003	0.13933285245576743	0.23304810926299876	0.0736493214368073	0.15133331749563617	0.2107566637819508	0.10180346616882412	0.1058320628952268	0.6004088179734424	0.1700211628229927	0.036674362436630865	0.6335372540019917	0.39171902980182144	0.15199400918721323	0.4053425836679801	0.4858225048235024	0.23404528567775332	0.3417329640656728	0.5184919491814731	0.22012475436016574	0.3204819601007513	0.5454935819531286	0.1688471592489986	0.375336163939004	0.5700787237398497
138	2.3389830508474576	0.3323317702531197	0.6008419757463248	0.6105728807451747	0.33746547506331587	0.6025011260779153	1.0100891812852462	0.35273740299140105	0.7496310198607362	1.4604301646483138	0.3473499810447324	0.5269286598824867	1.4496977785195682	0.39895620777662477	0.5636342494917398	1.4457879677234544	0.3330438447550853	0.818602740365178	1.519153492153539	0.14921424728526253	0.6225062805721108	0.6184079621485916	0.15079697991669982	0.6442722700662049	1.0292454063224634	0.17637557545074659	0.7190485637092234	1.4503184627772931	0.20141418267891784	0.5462158702252896	1.462105590516316	0.13935387911839445	0.5837794206928456	1.4602868129451125	0.19603786134281326	0.7780485387334085	1.504188409570546	0.2349082099466887	0.6016333156629265	0.09366918688858927	0.2413166810653139	0.48261405819700043	-0.12372248495590593	0.22717340991317778	0.4221427761651403	-0.009747179734368254	0.37942968296416835	0.5381096982141684	0.15095679719217792	0.3998593413909784	0.3183698406483039	0.24487066840411895	0.2287284931695204	0.28426600203097135	0.12458382023673248	0.12960147668109107	0.2667495521719017	0.08767710944308059	0.13444606446305157	0.2335006142829909	0.07077151689106902	0.15325871786375808	0.20136978632697494	0.0976423789423821	0.10781954178251167	0.6122452616283737	0.1747290079402128	0.038309499860479636	0.6477262044505336	0.39727652211994763	0.1519275556899237	0.4054141796752719	0.4858318332292418	0.23305250351760598	0.3417973434411167	0.511597899308239	0.2197102100654699	0.32129246230531555	0.542720828436026	0.16877961297323113	0.37555223896839357	0.5702211070752523
139	2.3559322033898304	0.33630187753006774	0.6023051200040823	0.610834560745693	0.3374840669553997	0.6026034280337285	1.0102432008948283	0.3527785566537823	0.7496249965119897	1.4605166790259123	0.3472497843831963	0.5268595180912573	1.449670303460336	0.4029835734629519	0.5655833733627751	1.4465163689123821	0.333132327771806	0.8185186215049788	1.5195770923833585	0.14880588970655312	0.6237350484510406	0.6151658364940106	0.15036576006145644	0.6454444237775653	1.0256834352229147	0.17649588763926308	0.7187951766375373	1.4501275107923703	0.19481791103498194	0.5617483758785444	1.466976421601152	0.1393478716539437	0.5840828031002194	1.4603017948740133	0.19616024171211005	0.7781414689922812	1.5043008924121177	0.234860447033543	0.6020961568935391	0.09360825293689573	0.24116186552175375	0.4826003003849157	-0.12363216381234074	0.2271700131753093	0.4221936948189522	-0.00976158215553568	0.37928442223074	0.5383420336578422	0.15098528340787007	0.39948795112646646	0.3172807697080482	0.24130337373462404	0.23345667112847468	0.27225487568381956	0.11973896569540968	0.13480052451740318	0.2465006390172532	0.08084687650812875	0.13923968019961286	0.22395999828066376	0.06929673706962065	0.16256732317172073	0.2124685671214113	0.09209649803941351	0.10769166558189437	0.6124253679650427	0.1746068668890863	0.03790513966381107	0.6464422062745853	0.3937212766020126	0.15189794184696784	0.4055296859304442	0.4858163567492244	0.2329039825616802	0.3421851529118253	0.5115223884283203	0.22007684869576424	0.32126402443065566	0.5388965293093031	0.16499753119747876	0.37451893597559194	0.5702426648367528
